<?xml version="1.0" encoding="utf-8"?>
<svg viewBox="0 0 500 500" xmlns="http://www.w3.org/2000/svg">
  <path opacity="1.000000" stroke="none" d="M 283.556 500.888 C 188.556 500.888 94.056 500.888 -0.444 500.888 C -0.444 334.221 -0.444 167.555 -0.444 0.888 C 166.223 0.888 332.889 0.888 499.556 0.888 C 499.556 167.554 499.556 334.221 499.556 500.888 C 427.723 500.888 355.889 500.888 283.556 500.888 M 483.923 259.616 C 483.894 253.294 483.722 246.967 483.897 240.651 C 483.98 237.629 482.688 236.236 480.055 235.126 C 470.243 230.991 460.566 226.532 450.726 222.469 C 447.752 221.241 446.586 219.444 445.837 216.409 C 442.934 204.644 439.576 192.992 436.642 181.233 C 436.204 179.477 436.511 176.947 437.521 175.512 C 443.651 166.795 449.96 158.194 456.486 149.769 C 458.721 146.884 459.311 144.555 457.277 141.339 C 453.898 135.998 450.707 130.522 447.74 124.942 C 446.226 122.092 444.273 121.459 441.284 121.825 C 430.712 123.119 420.1 124.104 409.541 125.488 C 406.591 125.875 404.811 125.301 402.689 123.035 C 394.843 114.659 386.895 106.335 378.419 98.614 C 375.097 95.589 374.23 92.842 374.783 88.745 C 376.14 78.686 377.142 68.579 378.45 58.513 C 378.823 55.649 378.037 53.894 375.45 52.487 C 369.458 49.227 363.549 45.803 357.726 42.249 C 355.338 40.792 353.663 41.149 351.516 42.795 C 342.926 49.383 334.125 55.696 325.54 62.289 C 323.067 64.188 321.027 64.536 317.907 63.591 C 306.47 60.123 294.926 56.967 283.314 54.141 C 280.466 53.449 279.071 52.3 278.001 49.795 C 273.756 39.85 269.253 30.014 265.082 20.039 C 263.885 17.174 262.324 15.873 259.182 15.948 C 252.688 16.105 246.185 16.098 239.691 15.95 C 236.571 15.878 234.97 17.13 233.762 20.015 C 229.588 29.989 225.271 39.912 220.649 49.684 C 219.78 51.524 217.473 53.293 215.471 53.887 C 203.851 57.333 192.078 60.267 180.466 63.738 C 177.699 64.565 175.901 64.251 173.718 62.58 C 165.386 56.203 156.819 50.129 148.571 43.647 C 145.561 41.283 143.198 40.631 139.799 42.866 C 134.799 46.152 129.573 49.135 124.253 51.877 C 120.858 53.626 120.092 55.97 120.557 59.529 C 121.916 69.924 123.184 80.338 124.084 90.78 C 124.261 92.836 123.195 95.584 121.747 97.098 C 113.236 105.987 104.524 114.691 95.659 123.229 C 94.262 124.574 91.681 125.524 89.761 125.356 C 78.821 124.399 67.929 122.898 56.987 121.98 C 55.209 121.831 52.519 123.175 51.53 124.673 C 47.777 130.357 44.679 136.47 41.067 142.254 C 39.436 144.865 40.02 146.613 41.726 148.856 C 48.177 157.34 54.333 166.05 60.825 174.502 C 62.783 177.051 62.947 179.172 62.057 182.226 C 58.713 193.703 55.608 205.259 52.817 216.882 C 52.145 219.683 51.112 221.133 48.527 222.222 C 38.716 226.358 29.063 230.874 19.217 234.921 C 15.734 236.353 14.453 238.332 14.609 242.019 C 14.861 248.007 14.886 254.023 14.604 260.008 C 14.431 263.667 16.073 265.282 19.2 266.588 C 29.025 270.692 38.721 275.103 48.521 279.268 C 51.03 280.334 52.181 281.737 52.856 284.595 C 55.605 296.23 58.714 307.79 62.051 319.272 C 62.938 322.325 62.795 324.484 60.854 327.017 C 54.471 335.343 48.404 343.913 42.011 352.232 C 40.053 354.781 39.435 356.764 41.327 359.714 C 44.647 364.891 47.74 370.244 50.501 375.738 C 52.419 379.555 55.051 380.226 58.958 379.688 C 69.178 378.282 79.454 377.285 89.686 375.96 C 92.675 375.572 94.431 376.67 96.482 378.822 C 104.746 387.492 113.423 395.769 121.704 404.424 C 123.141 405.926 124.241 408.626 124.067 410.65 C 123.143 421.424 121.845 432.17 120.493 442.902 C 120.103 445.992 121.073 447.835 123.786 449.303 C 129.64 452.469 135.254 456.095 141.209 459.043 C 142.797 459.829 145.779 459.578 147.238 458.551 C 156.359 452.127 165.16 445.251 174.253 438.788 C 175.682 437.772 178.225 437.453 179.974 437.901 C 191.883 440.95 203.677 444.455 215.606 447.416 C 218.408 448.111 219.807 449.244 220.879 451.779 C 225.091 461.737 229.37 471.674 233.973 481.455 C 234.737 483.079 237.192 484.802 238.956 484.902 C 245.921 485.296 252.925 484.938 259.908 485.123 C 262.733 485.198 264.007 484.027 265.048 481.561 C 269.124 471.905 273.588 462.41 277.497 452.69 C 278.941 449.099 281.194 447.89 284.701 447.019 C 295.982 444.22 307.123 440.855 318.401 438.043 C 320.429 437.538 323.344 437.921 325.012 439.09 C 333.872 445.303 342.535 451.805 351.106 458.416 C 353.518 460.277 355.354 460.822 358.118 459.078 C 363.604 455.618 369.231 452.35 374.985 449.361 C 378.272 447.653 378.776 445.376 378.335 442.039 C 376.981 431.811 375.933 421.543 374.64 411.306 C 374.232 408.075 375.141 405.952 377.659 403.594 C 385.913 395.863 393.927 387.85 401.612 379.554 C 404.312 376.638 406.764 375.563 410.624 376.095 C 420.844 377.504 431.116 378.527 441.356 379.794 C 444.08 380.132 446.045 379.698 447.511 376.982 C 450.67 371.127 454.017 365.361 457.554 359.726 C 459.372 356.829 458.843 354.858 456.828 352.254 C 450.203 343.695 443.8 334.958 437.569 326.108 C 436.548 324.658 436.172 322.131 436.609 320.379 C 439.588 308.456 442.998 296.641 445.951 284.712 C 446.673 281.793 447.941 280.237 450.661 279.096 C 460.479 274.976 470.141 270.48 479.982 266.415 C 482.932 265.196 484.232 263.558 483.923 259.616 Z" style="fill: none;"/>
  <path fill="#E1742C" opacity="1.000000" stroke="none" d="M 483.889 260.051 C 484.232 263.558 482.932 265.196 479.982 266.415 C 470.141 270.48 460.479 274.976 450.661 279.096 C 447.941 280.237 446.673 281.793 445.951 284.712 C 442.998 296.641 439.588 308.456 436.609 320.379 C 436.172 322.131 436.548 324.658 437.569 326.108 C 443.8 334.958 450.203 343.695 456.828 352.254 C 458.843 354.858 459.372 356.829 457.554 359.726 C 454.017 365.361 450.67 371.127 447.511 376.982 C 446.045 379.698 444.08 380.132 441.356 379.794 C 431.116 378.527 420.844 377.504 410.624 376.095 C 406.764 375.563 404.312 376.638 401.612 379.554 C 393.927 387.85 385.913 395.863 377.659 403.594 C 375.141 405.952 374.232 408.075 374.64 411.306 C 375.933 421.543 376.981 431.811 378.335 442.039 C 378.776 445.376 378.272 447.653 374.985 449.361 C 369.231 452.35 363.604 455.618 358.118 459.078 C 355.354 460.822 353.518 460.277 351.106 458.416 C 342.535 451.805 333.872 445.303 325.012 439.09 C 323.344 437.921 320.429 437.538 318.401 438.043 C 307.123 440.855 295.982 444.22 284.701 447.019 C 281.194 447.89 278.941 449.099 277.497 452.69 C 273.588 462.41 269.124 471.905 265.048 481.561 C 264.007 484.027 262.733 485.198 259.908 485.123 C 252.925 484.938 245.921 485.296 238.956 484.902 C 237.192 484.802 234.737 483.079 233.973 481.455 C 229.37 471.674 225.091 461.737 220.879 451.779 C 219.807 449.244 218.408 448.111 215.606 447.416 C 203.677 444.455 191.883 440.95 179.974 437.901 C 178.225 437.453 175.682 437.772 174.253 438.788 C 165.16 445.251 156.359 452.127 147.238 458.551 C 145.779 459.578 142.797 459.829 141.209 459.043 C 135.254 456.095 129.64 452.469 123.786 449.303 C 121.073 447.835 120.103 445.992 120.493 442.902 C 121.845 432.17 123.143 421.424 124.067 410.65 C 124.241 408.626 123.141 405.926 121.704 404.424 C 113.423 395.769 104.746 387.492 96.482 378.822 C 94.431 376.67 92.675 375.572 89.686 375.96 C 79.454 377.285 69.178 378.282 58.958 379.688 C 55.051 380.226 52.419 379.555 50.501 375.738 C 47.74 370.244 44.647 364.891 41.327 359.714 C 39.435 356.764 40.053 354.781 42.011 352.232 C 48.404 343.913 54.471 335.343 60.854 327.017 C 62.795 324.484 62.938 322.325 62.051 319.272 C 58.714 307.79 55.605 296.23 52.856 284.595 C 52.181 281.737 51.03 280.334 48.521 279.268 C 38.721 275.103 29.025 270.692 19.2 266.588 C 16.073 265.282 14.431 263.667 14.604 260.008 C 14.886 254.023 14.861 248.007 14.609 242.019 C 14.453 238.332 15.734 236.353 19.217 234.921 C 29.063 230.874 38.716 226.358 48.527 222.222 C 51.112 221.133 52.145 219.683 52.817 216.882 C 55.608 205.259 58.713 193.703 62.057 182.226 C 62.947 179.172 62.783 177.051 60.825 174.502 C 54.333 166.05 48.177 157.34 41.726 148.856 C 40.02 146.613 39.436 144.865 41.067 142.254 C 44.679 136.47 47.777 130.357 51.53 124.673 C 52.519 123.175 55.209 121.831 56.987 121.98 C 67.929 122.898 78.821 124.399 89.761 125.356 C 91.681 125.524 94.262 124.574 95.659 123.229 C 104.524 114.691 113.236 105.987 121.747 97.098 C 123.195 95.584 124.261 92.836 124.084 90.78 C 123.184 80.338 121.916 69.924 120.557 59.529 C 120.092 55.97 120.858 53.626 124.253 51.877 C 129.573 49.135 134.799 46.152 139.799 42.866 C 143.198 40.631 145.561 41.283 148.571 43.647 C 156.819 50.129 165.386 56.203 173.718 62.58 C 175.901 64.251 177.699 64.565 180.466 63.738 C 192.078 60.267 203.851 57.333 215.471 53.887 C 217.473 53.293 219.78 51.524 220.649 49.684 C 225.271 39.912 229.588 29.989 233.762 20.015 C 234.97 17.13 236.571 15.878 239.691 15.95 C 246.185 16.098 252.688 16.105 259.182 15.948 C 262.324 15.873 263.885 17.174 265.082 20.039 C 269.253 30.014 273.756 39.85 278.001 49.795 C 279.071 52.3 280.466 53.449 283.314 54.141 C 294.926 56.967 306.47 60.123 317.907 63.591 C 321.027 64.536 323.067 64.188 325.54 62.289 C 334.125 55.696 342.926 49.383 351.516 42.795 C 353.663 41.149 355.338 40.792 357.726 42.249 C 363.549 45.803 369.458 49.227 375.45 52.487 C 378.037 53.894 378.823 55.649 378.45 58.513 C 377.142 68.579 376.14 78.686 374.783 88.745 C 374.23 92.842 375.097 95.589 378.419 98.614 C 386.895 106.335 394.843 114.659 402.689 123.035 C 404.811 125.301 406.591 125.875 409.541 125.488 C 420.1 124.104 430.712 123.119 441.284 121.825 C 444.273 121.459 446.226 122.092 447.74 124.942 C 450.707 130.522 453.898 135.998 457.277 141.339 C 459.311 144.555 458.721 146.884 456.486 149.769 C 449.96 158.194 443.651 166.795 437.521 175.512 C 436.511 176.947 436.204 179.477 436.642 181.233 C 439.576 192.992 442.934 204.644 445.837 216.409 C 446.586 219.444 447.752 221.241 450.726 222.469 C 460.566 226.532 470.243 230.991 480.055 235.126 C 482.688 236.236 483.98 237.629 483.897 240.651 C 483.722 246.967 483.894 253.294 483.889 260.051 M 401.444 321.215 C 415.581 290.215 419.959 257.915 414.697 224.23 C 399.512 127.011 302.943 63.785 207.262 88.5 C 102.486 115.564 50.442 233.897 101.38 329.246 C 134.755 391.718 203.452 427.303 273.102 416.447 C 331.787 407.3 374.42 375.038 401.444 321.215 Z"/>
  <path fill="#161115" opacity="1.000000" stroke="none" d="M 401.283 321.556 C 374.42 375.038 331.787 407.3 273.102 416.447 C 203.452 427.303 134.755 391.718 101.38 329.246 C 50.442 233.897 102.486 115.564 207.262 88.5 C 302.943 63.785 399.512 127.011 414.697 224.23 C 419.959 257.915 415.581 290.215 401.283 321.556 M 243.319 164.465 C 212.154 154.088 175.981 173.658 172.184 211.716 C 147.976 205.741 127.676 211.812 112.348 231.82 C 99.792 248.21 98.543 272.479 110.291 290.549 C 126.791 315.93 150.314 321.524 178.007 311.75 C 190.163 328.895 205.924 338.866 226.965 340.039 C 247.992 341.21 264.687 332.825 278.4 317.392 C 288.939 326.358 300.389 329.495 313.439 325.004 C 326.441 320.531 333.399 310.868 336.336 297.915 C 357.741 305.026 375.286 301.042 386.856 286.641 C 397.99 272.782 399.501 253.713 390.628 239.018 C 380.047 221.493 364.528 215.977 339.053 220.929 C 335.174 207.814 326.86 198.302 314.126 193.104 C 301.081 187.779 288.425 189.624 276.181 196.652 C 269.986 181.2 259.286 170.668 243.319 164.465 Z"/>
  <path fill="#FDFDFD" opacity="1.000000" stroke="none" d="M 243.685 164.622 C 259.286 170.668 269.986 181.2 276.181 196.652 C 288.425 189.624 301.081 187.779 314.126 193.104 C 326.86 198.302 335.174 207.814 339.053 220.929 C 364.528 215.977 380.047 221.493 390.628 239.018 C 399.501 253.713 397.99 272.782 386.856 286.641 C 375.286 301.042 357.741 305.026 336.336 297.915 C 333.399 310.868 326.441 320.531 313.439 325.004 C 300.389 329.495 288.939 326.358 278.4 317.392 C 264.687 332.825 247.992 341.21 226.965 340.039 C 205.924 338.866 190.163 328.895 178.007 311.75 C 150.314 321.524 126.791 315.93 110.291 290.549 C 98.543 272.479 99.792 248.21 112.348 231.82 C 127.676 211.812 147.976 205.741 172.184 211.716 C 175.981 173.658 212.154 154.088 243.685 164.622 M 142.73 238.878 C 139.638 240.845 136.545 242.811 132.83 245.085 C 126.668 250.854 126.812 253.813 133.475 258.724 C 135.568 260.267 137.641 261.839 139.075 263.797 C 133.745 267.805 133.467 270.514 137.12 273.186 C 139.803 270.732 142.32 268.429 145.631 266.11 C 147.156 266.727 148.651 267.43 150.209 267.946 C 157.102 270.227 163.942 272.721 170.945 274.6 C 175.108 275.717 178.863 272.905 179.507 269.027 C 180.234 264.643 177.847 262.759 173.906 261.816 C 169.105 260.668 164.38 259.198 159.973 257.291 C 164.214 254.677 168.454 252.064 173.36 249.183 C 174.145 248.574 174.977 248.016 175.709 247.35 C 180.933 242.591 180.898 239.571 175.441 235.246 C 173.112 233.399 170.603 231.778 168.689 229.498 C 173.787 225.585 174.13 223.335 170.896 220.019 C 168.059 222.412 165.301 224.739 161.809 226.944 C 153.341 224.1 144.954 220.971 136.368 218.545 C 132.611 217.483 129.497 219.719 128.575 223.678 C 127.633 227.716 129.163 230.239 133.616 231.125 C 138.634 232.124 143.529 233.739 148.098 235.585 C 146.542 236.655 144.986 237.726 142.73 238.878 M 296.928 267.913 C 297.144 262.663 297.512 257.414 297.525 252.164 C 297.535 248.212 299.822 246.893 303.138 246.705 C 306.813 246.497 307.446 249.001 307.426 251.984 C 307.39 257.243 307.416 262.502 307.416 267.79 C 310.072 267.79 312.158 267.79 314.643 267.79 C 314.643 262.48 314.751 257.362 314.608 252.251 C 314.499 248.335 316.73 246.925 320.093 246.7 C 323.795 246.453 324.448 248.966 324.448 251.922 C 324.449 257.19 324.448 262.458 324.448 267.784 C 327.047 267.784 329.125 267.784 331.592 267.784 C 331.592 261.301 331.626 255.02 331.583 248.739 C 331.533 241.539 326.721 238.202 319.921 240.802 C 317.82 241.606 315.973 243.072 314.004 244.238 C 309.529 238.812 306.017 238.58 298.228 241.882 C 295.849 241.399 293.47 240.916 290.786 240.371 C 290.786 249.994 290.786 258.882 290.786 267.987 C 292.691 267.987 294.331 267.987 296.928 267.913 M 230.857 268.34 C 233.962 268.601 237.098 269.277 240.163 269.038 C 247.167 268.491 252.152 262.881 252.475 255.761 C 252.817 248.215 248.433 241.755 241.396 240.931 C 235.527 240.244 229.514 240.79 223.77 240.79 C 223.77 253.738 223.77 265.971 223.77 278.303 C 226.125 278.303 228.196 278.303 230.672 278.303 C 230.672 275.093 230.672 272.129 230.857 268.34 M 201.487 268.771 C 202.977 268.759 204.498 268.935 205.953 268.703 C 213.872 267.442 218.905 261.016 218.179 253.232 C 217.416 245.046 211.313 239.719 203.038 240.015 C 195.684 240.278 190.307 245.025 189.455 252.005 C 188.395 260.688 191.973 265.984 201.487 268.771 M 355.856 257.712 C 353.705 260.687 350.371 263.253 352.323 267.742 C 359.679 267.742 366.934 267.742 374.295 267.742 C 374.295 265.728 374.295 263.977 374.295 261.65 C 370.277 261.65 366.421 261.65 362.5 261.65 C 365.642 254.053 374.553 250.347 374.267 241.093 C 366.566 241.093 359.336 241.093 352.135 241.093 C 352.135 243.164 352.135 244.903 352.135 247.158 C 356.116 247.158 359.81 247.158 364.181 247.158 C 361.212 250.937 358.767 254.048 355.856 257.712 M 258.61 233.678 C 258.408 235.949 258.206 238.22 258.011 240.408 C 256.34 240.721 254.968 240.978 253.752 241.205 C 253.752 243.23 253.752 244.864 253.752 246.711 C 255.273 246.886 256.659 247.046 258.466 247.254 C 258.466 254.324 258.466 261.067 258.466 267.732 C 261.027 267.732 263.109 267.732 265.576 267.732 C 265.576 260.706 265.576 253.941 265.576 247.112 C 267.568 246.968 269.169 246.853 270.961 246.723 C 270.961 244.726 270.961 242.973 270.961 241.123 C 269.04 240.859 267.316 240.622 265.645 240.392 C 265.515 237.8 265.403 235.539 265.284 233.159 C 262.979 233.159 261.161 233.159 258.61 233.678 M 278.188 240.73 C 277.402 241.491 275.948 242.238 275.933 243.014 C 275.767 251.251 275.83 259.492 275.83 267.716 C 278.588 267.716 280.815 267.716 283.143 267.716 C 283.143 258.672 283.143 249.956 283.143 240.986 C 281.671 240.892 280.393 240.81 278.188 240.73 M 343.807 268.001 C 344.525 267.19 345.851 266.39 345.866 265.566 C 346.022 257.458 345.961 249.346 345.961 241.055 C 343.414 241.055 341.206 241.055 338.875 241.055 C 338.875 250.075 338.875 258.805 338.875 267.809 C 340.334 267.88 341.614 267.942 343.807 268.001 M 346.143 234.675 C 347.427 231.721 346.628 229.274 343.618 228.415 C 342.303 228.039 339.729 228.917 339.126 230.002 C 338.38 231.347 338.434 233.957 339.307 235.203 C 340.993 237.606 343.487 237.356 346.143 234.675 M 277.029 228.978 C 276.882 231.15 276.318 233.432 276.844 235.426 C 277.001 236.023 280.755 236.575 281.86 235.772 C 283.024 234.925 283.937 231.613 283.269 230.84 C 282.115 229.506 279.653 229.301 277.029 228.978 Z"/>
  <path fill="#050505" opacity="1.000000" stroke="none" d="M 296.45 267.95 C 294.331 267.987 292.691 267.987 290.786 267.987 C 290.786 258.882 290.786 249.994 290.786 240.371 C 293.47 240.916 295.849 241.399 298.228 241.882 C 306.017 238.58 309.529 238.812 314.004 244.238 C 315.973 243.072 317.82 241.606 319.921 240.802 C 326.721 238.202 331.533 241.539 331.583 248.739 C 331.626 255.02 331.592 261.301 331.592 267.784 C 329.125 267.784 327.047 267.784 324.448 267.784 C 324.448 262.458 324.449 257.19 324.448 251.922 C 324.448 248.966 323.795 246.453 320.093 246.7 C 316.73 246.925 314.499 248.335 314.608 252.251 C 314.751 257.362 314.643 262.48 314.643 267.79 C 312.158 267.79 310.072 267.79 307.416 267.79 C 307.416 262.502 307.39 257.243 307.426 251.984 C 307.446 249.001 306.813 246.497 303.138 246.705 C 299.822 246.893 297.535 248.212 297.525 252.164 C 297.512 257.414 297.144 262.663 296.45 267.95 Z"/>
  <path fill="#060606" opacity="1.000000" stroke="none" d="M 230.765 268.753 C 230.672 272.129 230.672 275.093 230.672 278.303 C 228.196 278.303 226.125 278.303 223.77 278.303 C 223.77 265.971 223.77 253.738 223.77 240.79 C 229.514 240.79 235.527 240.244 241.396 240.931 C 248.433 241.755 252.817 248.215 252.475 255.761 C 252.152 262.881 247.167 268.491 240.163 269.038 C 237.098 269.277 233.962 268.601 230.765 268.753 M 232.053 250.02 C 231.584 251.419 230.78 252.802 230.71 254.221 C 230.514 258.223 232.077 261.523 236.1 262.702 C 239.508 263.701 242.416 262.243 243.843 258.966 C 245.456 255.261 245.496 251.386 242.182 248.544 C 238.903 245.732 235.495 246.235 232.053 250.02 Z"/>
  <path fill="#593F99" opacity="1.000000" stroke="none" d="M 159.622 257.868 C 164.38 259.198 169.105 260.668 173.906 261.816 C 177.847 262.759 180.234 264.643 179.507 269.027 C 178.863 272.905 175.108 275.717 170.945 274.6 C 163.942 272.721 157.102 270.227 150.209 267.946 C 148.651 267.43 147.156 266.727 145.055 265.856 C 142.894 264.867 141.308 264.132 139.723 263.397 C 137.641 261.839 135.568 260.267 133.475 258.724 C 126.812 253.813 126.668 250.854 133.442 245.115 C 136.305 250.291 140.262 252.697 145.84 252.521 C 145.834 252.55 145.826 252.606 145.837 252.919 C 146.392 253.47 146.937 253.708 147.794 254.085 C 149.143 254.609 150.179 254.994 151.507 255.588 C 154.407 256.487 157.015 257.177 159.622 257.868 Z"/>
  <path fill="#ED2154" opacity="1.000000" stroke="none" d="M 168.176 230.054 C 170.603 231.778 173.112 233.399 175.441 235.246 C 180.898 239.571 180.933 242.591 175.709 247.35 C 174.977 248.016 174.145 248.574 173.003 248.87 C 172.317 243.04 169.303 240.757 161.427 240.008 C 161.464 239.981 161.521 240.051 161.403 239.787 C 160.953 239.346 160.62 239.169 159.983 238.92 C 158.738 238.44 157.799 238.033 156.591 237.371 C 153.708 236.44 151.093 235.763 148.477 235.087 C 143.529 233.739 138.634 232.124 133.616 231.125 C 129.163 230.239 127.633 227.716 128.575 223.678 C 129.497 219.719 132.611 217.483 136.368 218.545 C 144.954 220.971 153.341 224.1 162.374 227.261 C 164.685 228.403 166.43 229.229 168.176 230.054 Z"/>
  <path fill="#0A0A0A" opacity="1.000000" stroke="none" d="M 201.082 268.692 C 191.973 265.984 188.395 260.688 189.455 252.005 C 190.307 245.025 195.684 240.278 203.038 240.015 C 211.313 239.719 217.416 245.046 218.179 253.232 C 218.905 261.016 213.872 267.442 205.953 268.703 C 204.498 268.935 202.977 268.759 201.082 268.692 M 197.267 257.481 C 198.809 262.186 202.35 262.909 206.446 261.69 C 209.826 260.685 211.604 255.483 210.19 251.417 C 208.825 247.492 205.894 246.073 201.934 246.814 C 198.097 247.533 196.403 251.01 197.267 257.481 Z"/>
  <path fill="#080808" opacity="1.000000" stroke="none" d="M 356.089 257.436 C 358.767 254.048 361.212 250.937 364.181 247.158 C 359.81 247.158 356.116 247.158 352.135 247.158 C 352.135 244.903 352.135 243.164 352.135 241.093 C 359.336 241.093 366.566 241.093 374.267 241.093 C 374.553 250.347 365.642 254.053 362.5 261.65 C 366.421 261.65 370.277 261.65 374.295 261.65 C 374.295 263.977 374.295 265.728 374.295 267.742 C 366.934 267.742 359.679 267.742 352.323 267.742 C 350.371 263.253 353.705 260.687 356.089 257.436 Z"/>
  <path fill="#080808" opacity="1.000000" stroke="none" d="M 258.976 233.418 C 261.161 233.159 262.979 233.159 265.284 233.159 C 265.403 235.539 265.515 237.8 265.645 240.392 C 267.316 240.622 269.04 240.859 270.961 241.123 C 270.961 242.973 270.961 244.726 270.961 246.723 C 269.169 246.853 267.568 246.968 265.576 247.112 C 265.576 253.941 265.576 260.706 265.576 267.732 C 263.109 267.732 261.027 267.732 258.466 267.732 C 258.466 261.067 258.466 254.324 258.466 247.254 C 256.659 247.046 255.273 246.886 253.752 246.711 C 253.752 244.864 253.752 243.23 253.752 241.205 C 254.968 240.978 256.34 240.721 258.011 240.408 C 258.206 238.22 258.408 235.949 258.976 233.418 Z"/>
  <path fill="#191919" opacity="1.000000" stroke="none" d="M 278.651 240.729 C 280.393 240.81 281.671 240.892 283.143 240.986 C 283.143 249.956 283.143 258.672 283.143 267.716 C 280.815 267.716 278.588 267.716 275.83 267.716 C 275.83 259.492 275.767 251.251 275.933 243.014 C 275.948 242.238 277.402 241.491 278.651 240.729 Z"/>
  <path fill="#090909" opacity="1.000000" stroke="none" d="M 343.35 268.003 C 341.614 267.942 340.334 267.88 338.875 267.809 C 338.875 258.805 338.875 250.075 338.875 241.055 C 341.206 241.055 343.414 241.055 345.961 241.055 C 345.961 249.346 346.022 257.458 345.866 265.566 C 345.851 266.39 344.525 267.19 343.35 268.003 Z"/>
  <path fill="#B82342" opacity="1.000000" stroke="none" d="M 161.391 240.035 C 169.303 240.757 172.317 243.04 172.671 249.004 C 168.454 252.064 164.214 254.677 159.797 257.579 C 157.015 257.177 154.407 256.487 151.784 255.315 C 154.363 252.781 156.991 250.77 159.545 248.668 C 162.415 246.305 163.693 243.535 161.391 240.035 Z"/>
  <path fill="#7C7BBA" opacity="1.000000" stroke="none" d="M 145.847 252.493 C 140.262 252.697 136.305 250.291 133.753 244.962 C 136.545 242.811 139.638 240.845 143.376 239.101 C 144.554 241.902 145.085 244.48 145.459 247.358 C 145.483 249.268 145.665 250.881 145.847 252.493 Z"/>
  <path fill="#768FC7" opacity="1.000000" stroke="none" d="M 145.617 247.059 C 145.085 244.48 144.554 241.902 143.726 239.059 C 144.986 237.726 146.542 236.655 148.288 235.336 C 151.093 235.763 153.708 236.44 156.302 237.59 C 152.725 241.063 149.171 244.061 145.617 247.059 Z"/>
  <path fill="#0F0F0F" opacity="1.000000" stroke="none" d="M 345.888 234.972 C 343.487 237.356 340.993 237.606 339.307 235.203 C 338.434 233.957 338.38 231.347 339.126 230.002 C 339.729 228.917 342.303 228.039 343.618 228.415 C 346.628 229.274 347.427 231.721 345.888 234.972 Z"/>
  <path fill="#0D0D0D" opacity="1.000000" stroke="none" d="M 277.385 228.801 C 279.653 229.301 282.115 229.506 283.269 230.84 C 283.937 231.613 283.024 234.925 281.86 235.772 C 280.755 236.575 277.001 236.023 276.844 235.426 C 276.318 233.432 276.882 231.15 277.385 228.801 Z"/>
  <path fill="#BB2F4D" opacity="1.000000" stroke="none" d="M 139.399 263.597 C 141.308 264.132 142.894 264.867 144.658 265.865 C 142.32 268.429 139.803 270.732 137.12 273.186 C 133.467 270.514 133.745 267.805 139.399 263.597 Z"/>
  <path fill="#5EBBE5" opacity="1.000000" stroke="none" d="M 168.433 229.776 C 166.43 229.229 164.685 228.403 162.741 227.321 C 165.301 224.739 168.059 222.412 170.896 220.019 C 174.13 223.335 173.787 225.585 168.433 229.776 Z"/>
  <path fill="#F7F7F7" opacity="1.000000" stroke="none" d="M 232.288 249.703 C 235.495 246.235 238.903 245.732 242.182 248.544 C 245.496 251.386 245.456 255.261 243.843 258.966 C 242.416 262.243 239.508 263.701 236.1 262.702 C 232.077 261.523 230.514 258.223 230.71 254.221 C 230.78 252.802 231.584 251.419 232.288 249.703 Z"/>
  <path fill="#FDFCFC" opacity="1.000000" stroke="none" d="M 145.459 247.358 C 149.171 244.061 152.725 241.063 156.569 237.845 C 157.799 238.033 158.738 238.44 160.101 239.184 C 160.856 239.697 161.188 239.874 161.521 240.051 C 161.521 240.051 161.464 239.981 161.427 240.008 C 163.693 243.535 162.415 246.305 159.545 248.668 C 156.991 250.77 154.363 252.781 151.492 255.106 C 150.179 254.994 149.143 254.609 147.667 253.834 C 146.76 253.164 146.293 252.885 145.826 252.606 C 145.826 252.606 145.834 252.55 145.84 252.521 C 145.665 250.881 145.483 249.268 145.459 247.358 Z"/>
  <path fill="#7C7BBA" opacity="1.000000" stroke="none" d="M 145.837 252.919 C 146.293 252.885 146.76 253.164 147.354 253.694 C 146.937 253.708 146.392 253.47 145.837 252.919 Z"/>
  <path fill="#B82342" opacity="1.000000" stroke="none" d="M 161.403 239.787 C 161.188 239.874 160.856 239.697 160.406 239.256 C 160.62 239.169 160.953 239.346 161.403 239.787 Z"/>
  <path fill="#F8F8F8" opacity="1.000000" stroke="none" d="M 197.096 257.116 C 196.403 251.01 198.097 247.533 201.934 246.814 C 205.894 246.073 208.825 247.492 210.19 251.417 C 211.604 255.483 209.826 260.685 206.446 261.69 C 202.35 262.909 198.809 262.186 197.096 257.116 Z"/>
</svg>