<svg version="1.1" id="Layer_1" xmlns="http://www.w3.org/2000/svg" xmlns:xlink="http://www.w3.org/1999/xlink" x="0px" y="0px"
	 width="100%" viewBox="0 0 500 500" enable-background="new 0 0 500 500" xml:space="preserve">
<path fill="#151015" opacity="1.000000" stroke="none" 
	d="
M285.000000,501.000000 
	C190.000015,501.000000 95.500046,501.000000 1.000051,501.000000 
	C1.000034,334.333405 1.000034,167.666794 1.000017,1.000140 
	C167.666565,1.000093 334.333130,1.000093 500.999756,1.000047 
	C500.999847,167.666519 500.999847,334.333038 500.999939,500.999786 
	C429.166656,501.000000 357.333344,501.000000 285.000000,501.000000 
M485.366913,259.727844 
	C485.337524,253.405579 485.165771,247.079391 485.340637,240.762772 
	C485.424286,237.740692 484.131653,236.347580 481.498657,235.237900 
	C471.686768,231.102661 462.010284,226.643570 452.169617,222.580688 
	C449.195587,221.352814 448.030334,219.555618 447.281494,216.521317 
	C444.378021,204.756271 441.020233,193.103607 438.086456,181.345505 
	C437.648132,179.588715 437.955200,177.059479 438.964661,175.623993 
	C445.094849,166.906601 451.403687,158.305893 457.929993,149.880890 
	C460.164795,146.995911 460.755249,144.667267 458.720825,141.451263 
	C455.341858,136.109940 452.150665,130.634430 449.184479,125.053795 
	C447.669556,122.203590 445.717377,121.570648 442.728302,121.936661 
	C432.155914,123.231209 421.544464,124.216034 410.984802,125.600151 
	C408.035065,125.986794 406.254639,125.412704 404.132721,123.147141 
	C396.287262,114.770729 388.339447,106.447083 379.862793,98.726486 
	C376.541290,95.701248 375.673767,92.953590 376.226624,88.857330 
	C377.584259,78.798149 378.585541,68.691246 379.894226,58.624866 
	C380.266541,55.761055 379.480896,54.006119 376.894135,52.598724 
	C370.902039,49.338581 364.992737,45.914715 359.169617,42.361034 
	C356.781677,40.903751 355.106567,41.260834 352.959961,42.906998 
	C344.369873,49.494545 335.569366,55.807854 326.983582,62.400848 
	C324.510712,64.299736 322.471069,64.648453 319.351257,63.702614 
	C307.913635,60.235096 296.370209,57.078693 284.757599,54.253277 
	C281.910431,53.560543 280.514893,52.412388 279.445374,49.907070 
	C275.199921,39.962128 270.696777,30.126251 266.526428,20.150745 
	C265.328766,17.285870 263.768280,15.984653 260.626404,16.060352 
	C254.132263,16.216818 247.629379,16.209650 241.134842,16.061563 
	C238.015060,15.990430 236.413712,17.241693 235.206238,20.126604 
	C231.031555,30.100977 226.714737,40.023643 222.093369,49.796387 
	C221.223633,51.635582 218.916901,53.404823 216.915054,53.998596 
	C205.294922,57.445259 193.522186,60.378613 181.909866,63.849556 
	C179.142578,64.676704 177.344635,64.362564 175.162201,62.692284 
	C166.829788,56.315224 158.263184,50.240536 150.014679,43.759377 
	C147.004974,41.394550 144.642487,40.743290 141.242630,42.977844 
	C136.242981,46.263859 131.016907,49.246655 125.696594,51.988579 
	C122.302299,53.737892 121.535728,56.081669 122.000900,59.640549 
	C123.359642,70.035904 124.627838,80.450386 125.528038,90.892159 
	C125.705254,92.947678 124.639519,95.696213 123.190697,97.209633 
	C114.680176,106.099525 105.967552,114.802536 97.103508,123.340630 
	C95.706360,124.686394 93.124908,125.635727 91.204819,125.467758 
	C80.265221,124.510788 69.372635,123.010376 58.430717,122.092209 
	C56.652905,121.943039 53.962799,123.286774 52.973598,124.785027 
	C49.220619,130.469421 46.123112,136.581955 42.510567,142.365784 
	C40.879887,144.976578 41.463852,146.725464 43.169571,148.968430 
	C49.621246,157.452209 55.776756,166.162003 62.268917,174.613754 
	C64.226936,177.162766 64.391075,179.283813 63.501114,182.338089 
	C60.156876,193.815308 57.052029,205.371078 54.261185,216.994354 
	C53.588600,219.795517 52.556278,221.244629 49.971321,222.334213 
	C40.159893,226.469833 30.507238,230.985809 20.661169,235.033508 
	C17.178255,236.465332 15.897478,238.444168 16.052700,242.131058 
	C16.304804,248.119125 16.330492,254.135239 16.047794,260.120422 
	C15.875006,263.778687 17.516724,265.394073 20.643770,266.700317 
	C30.468672,270.804382 40.165321,275.214569 49.965324,279.379883 
	C52.474388,280.446320 53.624912,281.848572 54.300190,284.706879 
	C57.049141,296.342499 60.157970,307.901703 63.495037,319.384155 
	C64.382195,322.436768 64.239464,324.596344 62.298283,327.128632 
	C55.915096,335.455505 49.847878,344.024689 43.455311,352.344086 
	C41.496719,354.893036 40.878578,356.876282 42.770634,359.826294 
	C46.090839,365.003021 49.183674,370.356384 51.944782,375.850342 
	C53.862732,379.666534 56.495132,380.338043 60.402058,379.800507 
	C70.622162,378.394318 80.897980,377.397461 91.130096,376.071564 
	C94.118965,375.684265 95.875153,376.781586 97.926483,378.933807 
	C106.190231,387.604370 114.866966,395.880890 123.147713,404.535889 
	C124.585197,406.038330 125.684654,408.737885 125.511116,410.761993 
	C124.587349,421.536346 123.289490,432.281891 121.936630,443.014160 
	C121.547188,446.103668 122.517288,447.947235 125.230232,449.414795 
	C131.083527,452.581116 136.698288,456.206787 142.653107,459.154755 
	C144.240524,459.940643 147.222992,459.690399 148.682297,458.662598 
	C157.802597,452.239197 166.603653,445.363342 175.697113,438.899963 
	C177.125839,437.884460 179.669067,437.565033 181.418182,438.012848 
	C193.327286,441.061890 205.121033,444.566620 217.050385,447.527893 
	C219.851898,448.223297 221.250977,449.355865 222.322983,451.890533 
	C226.535004,461.849396 230.813583,471.786499 235.417267,481.567017 
	C236.181473,483.190582 238.636505,484.914001 240.399536,485.013885 
	C247.364822,485.408447 254.368988,485.050415 261.351746,485.235229 
	C264.177460,485.310028 265.451141,484.138794 266.491974,481.673126 
	C270.567871,472.017487 275.032135,462.522003 278.941071,452.801697 
	C280.385071,449.211090 282.638428,448.001617 286.144775,447.131378 
	C297.425903,444.331635 308.566772,440.967072 319.845184,438.155212 
	C321.872742,437.649689 324.788483,438.033142 326.455597,439.202087 
	C335.316040,445.414703 343.979492,451.917328 352.550079,458.528442 
	C354.961914,460.388824 356.798431,460.933685 359.562256,459.190216 
	C365.047638,455.730011 370.674683,452.462494 376.428864,449.472717 
	C379.716248,447.764648 380.220276,445.488007 379.778687,442.151520 
	C378.424835,431.923309 377.376831,421.654999 376.084290,411.418152 
	C375.676331,408.187256 376.584900,406.064240 379.102722,403.706085 
	C387.356598,395.975494 395.371338,387.961792 403.055634,379.665771 
	C405.756470,376.749939 408.207916,375.674622 412.067993,376.206848 
	C422.287567,377.615967 432.559723,378.639343 442.799805,379.906494 
	C445.524109,380.243591 447.489502,379.810364 448.955048,377.094269 
	C452.114288,371.239044 455.460846,365.473145 458.997711,359.838226 
	C460.816254,356.940918 460.287292,354.970093 458.272095,352.366486 
	C451.647247,343.807495 445.244049,335.070038 439.012878,326.220093 
	C437.992157,324.770477 437.615692,322.242981 438.053314,320.491455 
	C441.032349,308.568420 444.442047,296.752686 447.394653,284.823608 
	C448.116974,281.905151 449.385284,280.349487 452.104950,279.208191 
	C461.923492,275.087677 471.585358,270.591797 481.425781,266.526733 
	C484.376038,265.308014 485.676514,263.670349 485.366913,259.727844 
z"/>
<path fill="#E1742C" opacity="1.000000" stroke="none" 
	d="
M485.332825,260.163513 
	C485.676514,263.670349 484.376038,265.308014 481.425781,266.526733 
	C471.585358,270.591797 461.923492,275.087677 452.104950,279.208191 
	C449.385284,280.349487 448.116974,281.905151 447.394653,284.823608 
	C444.442047,296.752686 441.032349,308.568420 438.053314,320.491455 
	C437.615692,322.242981 437.992157,324.770477 439.012878,326.220093 
	C445.244049,335.070038 451.647247,343.807495 458.272095,352.366486 
	C460.287292,354.970093 460.816254,356.940918 458.997711,359.838226 
	C455.460846,365.473145 452.114288,371.239044 448.955048,377.094269 
	C447.489502,379.810364 445.524109,380.243591 442.799805,379.906494 
	C432.559723,378.639343 422.287567,377.615967 412.067993,376.206848 
	C408.207916,375.674622 405.756470,376.749939 403.055634,379.665771 
	C395.371338,387.961792 387.356598,395.975494 379.102722,403.706085 
	C376.584900,406.064240 375.676331,408.187256 376.084290,411.418152 
	C377.376831,421.654999 378.424835,431.923309 379.778687,442.151520 
	C380.220276,445.488007 379.716248,447.764648 376.428864,449.472717 
	C370.674683,452.462494 365.047638,455.730011 359.562256,459.190216 
	C356.798431,460.933685 354.961914,460.388824 352.550079,458.528442 
	C343.979492,451.917328 335.316040,445.414703 326.455597,439.202087 
	C324.788483,438.033142 321.872742,437.649689 319.845184,438.155212 
	C308.566772,440.967072 297.425903,444.331635 286.144775,447.131378 
	C282.638428,448.001617 280.385071,449.211090 278.941071,452.801697 
	C275.032135,462.522003 270.567871,472.017487 266.491974,481.673126 
	C265.451141,484.138794 264.177460,485.310028 261.351746,485.235229 
	C254.368988,485.050415 247.364822,485.408447 240.399536,485.013885 
	C238.636505,484.914001 236.181473,483.190582 235.417267,481.567017 
	C230.813583,471.786499 226.535004,461.849396 222.322983,451.890533 
	C221.250977,449.355865 219.851898,448.223297 217.050385,447.527893 
	C205.121033,444.566620 193.327286,441.061890 181.418182,438.012848 
	C179.669067,437.565033 177.125839,437.884460 175.697113,438.899963 
	C166.603653,445.363342 157.802597,452.239197 148.682297,458.662598 
	C147.222992,459.690399 144.240524,459.940643 142.653107,459.154755 
	C136.698288,456.206787 131.083527,452.581116 125.230232,449.414795 
	C122.517288,447.947235 121.547188,446.103668 121.936630,443.014160 
	C123.289490,432.281891 124.587349,421.536346 125.511116,410.761993 
	C125.684654,408.737885 124.585197,406.038330 123.147713,404.535889 
	C114.866966,395.880890 106.190231,387.604370 97.926483,378.933807 
	C95.875153,376.781586 94.118965,375.684265 91.130096,376.071564 
	C80.897980,377.397461 70.622162,378.394318 60.402058,379.800507 
	C56.495132,380.338043 53.862732,379.666534 51.944782,375.850342 
	C49.183674,370.356384 46.090839,365.003021 42.770634,359.826294 
	C40.878578,356.876282 41.496719,354.893036 43.455311,352.344086 
	C49.847878,344.024689 55.915096,335.455505 62.298283,327.128632 
	C64.239464,324.596344 64.382195,322.436768 63.495037,319.384155 
	C60.157970,307.901703 57.049141,296.342499 54.300190,284.706879 
	C53.624912,281.848572 52.474388,280.446320 49.965324,279.379883 
	C40.165321,275.214569 30.468672,270.804382 20.643770,266.700317 
	C17.516724,265.394073 15.875006,263.778687 16.047794,260.120422 
	C16.330492,254.135239 16.304804,248.119125 16.052700,242.131058 
	C15.897478,238.444168 17.178255,236.465332 20.661169,235.033508 
	C30.507238,230.985809 40.159893,226.469833 49.971321,222.334213 
	C52.556278,221.244629 53.588600,219.795517 54.261185,216.994354 
	C57.052029,205.371078 60.156876,193.815308 63.501114,182.338089 
	C64.391075,179.283813 64.226936,177.162766 62.268917,174.613754 
	C55.776756,166.162003 49.621246,157.452209 43.169571,148.968430 
	C41.463852,146.725464 40.879887,144.976578 42.510567,142.365784 
	C46.123112,136.581955 49.220619,130.469421 52.973598,124.785027 
	C53.962799,123.286774 56.652905,121.943039 58.430717,122.092209 
	C69.372635,123.010376 80.265221,124.510788 91.204819,125.467758 
	C93.124908,125.635727 95.706360,124.686394 97.103508,123.340630 
	C105.967552,114.802536 114.680176,106.099525 123.190697,97.209633 
	C124.639519,95.696213 125.705254,92.947678 125.528038,90.892159 
	C124.627838,80.450386 123.359642,70.035904 122.000900,59.640549 
	C121.535728,56.081669 122.302299,53.737892 125.696594,51.988579 
	C131.016907,49.246655 136.242981,46.263859 141.242630,42.977844 
	C144.642487,40.743290 147.004974,41.394550 150.014679,43.759377 
	C158.263184,50.240536 166.829788,56.315224 175.162201,62.692284 
	C177.344635,64.362564 179.142578,64.676704 181.909866,63.849556 
	C193.522186,60.378613 205.294922,57.445259 216.915054,53.998596 
	C218.916901,53.404823 221.223633,51.635582 222.093369,49.796387 
	C226.714737,40.023643 231.031555,30.100977 235.206238,20.126604 
	C236.413712,17.241693 238.015060,15.990430 241.134842,16.061563 
	C247.629379,16.209650 254.132263,16.216818 260.626404,16.060352 
	C263.768280,15.984653 265.328766,17.285870 266.526428,20.150745 
	C270.696777,30.126251 275.199921,39.962128 279.445374,49.907070 
	C280.514893,52.412388 281.910431,53.560543 284.757599,54.253277 
	C296.370209,57.078693 307.913635,60.235096 319.351257,63.702614 
	C322.471069,64.648453 324.510712,64.299736 326.983582,62.400848 
	C335.569366,55.807854 344.369873,49.494545 352.959961,42.906998 
	C355.106567,41.260834 356.781677,40.903751 359.169617,42.361034 
	C364.992737,45.914715 370.902039,49.338581 376.894135,52.598724 
	C379.480896,54.006119 380.266541,55.761055 379.894226,58.624866 
	C378.585541,68.691246 377.584259,78.798149 376.226624,88.857330 
	C375.673767,92.953590 376.541290,95.701248 379.862793,98.726486 
	C388.339447,106.447083 396.287262,114.770729 404.132721,123.147141 
	C406.254639,125.412704 408.035065,125.986794 410.984802,125.600151 
	C421.544464,124.216034 432.155914,123.231209 442.728302,121.936661 
	C445.717377,121.570648 447.669556,122.203590 449.184479,125.053795 
	C452.150665,130.634430 455.341858,136.109940 458.720825,141.451263 
	C460.755249,144.667267 460.164795,146.995911 457.929993,149.880890 
	C451.403687,158.305893 445.094849,166.906601 438.964661,175.623993 
	C437.955200,177.059479 437.648132,179.588715 438.086456,181.345505 
	C441.020233,193.103607 444.378021,204.756271 447.281494,216.521317 
	C448.030334,219.555618 449.195587,221.352814 452.169617,222.580688 
	C462.010284,226.643570 471.686768,231.102661 481.498657,235.237900 
	C484.131653,236.347580 485.424286,237.740692 485.340637,240.762772 
	C485.165771,247.079391 485.337524,253.405579 485.332825,260.163513 
M402.887604,321.327332 
	C417.024750,290.327026 421.402710,258.026886 416.141266,224.341873 
	C400.956085,127.123253 304.387085,63.897507 208.706345,88.612083 
	C103.930382,115.675987 51.886265,234.009247 102.824043,329.357788 
	C136.198624,391.830414 204.895966,427.414764 274.545837,416.558777 
	C333.230957,407.411804 375.863525,375.150513 402.887604,321.327332 
z"/>
<path fill="#161115" opacity="1.000000" stroke="none" 
	d="
M402.727509,321.667908 
	C375.863525,375.150513 333.230957,407.411804 274.545837,416.558777 
	C204.895966,427.414764 136.198624,391.830414 102.824043,329.357788 
	C51.886265,234.009247 103.930382,115.675987 208.706345,88.612083 
	C304.387085,63.897507 400.956085,127.123253 416.141266,224.341873 
	C421.402710,258.026886 417.024750,290.327026 402.727509,321.667908 
M244.763397,164.576981 
	C213.597687,154.200058 177.425079,173.770523 173.627838,211.827896 
	C149.420288,205.852768 129.119919,211.923996 113.791679,231.932190 
	C101.235527,248.321915 99.987511,272.591217 111.735100,290.661346 
	C128.235306,316.041992 151.758041,321.635925 179.450897,311.861847 
	C191.606628,329.007385 207.368423,338.978210 228.408661,340.150543 
	C249.436295,341.322205 266.131287,332.936981 279.844269,317.504303 
	C290.383148,326.470306 301.833160,329.606689 314.882690,325.116516 
	C327.884735,320.642700 334.843201,310.979919 337.780243,298.027008 
	C359.184753,305.137634 376.729797,301.154266 388.299622,286.753510 
	C399.434326,272.894348 400.944794,253.825150 392.071930,239.129929 
	C381.490601,221.605164 365.972443,216.089127 340.497040,221.040741 
	C336.618408,207.925781 328.304108,198.414337 315.570129,193.216064 
	C302.524811,187.890701 289.868927,189.735718 277.624969,196.764420 
	C271.429993,181.311752 260.729645,170.780014 244.763397,164.576981 
z"/>
<path fill="#FDFDFD" opacity="1.000000" stroke="none" 
	d="
M245.128937,164.733612 
	C260.729645,170.780014 271.429993,181.311752 277.624969,196.764420 
	C289.868927,189.735718 302.524811,187.890701 315.570129,193.216064 
	C328.304108,198.414337 336.618408,207.925781 340.497040,221.040741 
	C365.972443,216.089127 381.490601,221.605164 392.071930,239.129929 
	C400.944794,253.825150 399.434326,272.894348 388.299622,286.753510 
	C376.729797,301.154266 359.184753,305.137634 337.780243,298.027008 
	C334.843201,310.979919 327.884735,320.642700 314.882690,325.116516 
	C301.833160,329.606689 290.383148,326.470306 279.844269,317.504303 
	C266.131287,332.936981 249.436295,341.322205 228.408661,340.150543 
	C207.368423,338.978210 191.606628,329.007385 179.450897,311.861847 
	C151.758041,321.635925 128.235306,316.041992 111.735100,290.661346 
	C99.987511,272.591217 101.235527,248.321915 113.791679,231.932190 
	C129.119919,211.923996 149.420288,205.852768 173.627838,211.827896 
	C177.425079,173.770523 213.597687,154.200058 245.128937,164.733612 
M144.174316,238.990341 
	C141.081558,240.956802 137.988785,242.923279 134.274368,245.196716 
	C128.112228,250.965927 128.255646,253.925171 134.918701,258.836060 
	C137.012344,260.379150 139.084915,261.950867 140.519073,263.909424 
	C135.189178,267.917358 134.911392,270.626068 138.564499,273.297760 
	C141.247253,270.843567 143.763794,268.541412 147.075516,266.221863 
	C148.599762,266.838837 150.095383,267.542328 151.653214,268.057831 
	C158.546280,270.338837 165.385605,272.832855 172.388748,274.711639 
	C176.552475,275.828674 180.307312,273.017242 180.950699,269.139465 
	C181.678085,264.755249 179.291061,262.870667 175.350357,261.928406 
	C170.548721,260.780273 165.824036,259.310364 161.416870,257.402618 
	C165.657547,254.789474 169.898209,252.176346 174.803894,249.294586 
	C175.589340,248.686295 176.420731,248.128448 177.152878,247.461624 
	C182.377457,242.703354 182.342377,239.682938 176.885376,235.357697 
	C174.555695,233.511200 172.047470,231.889999 170.132721,229.609879 
	C175.230591,225.697174 175.573654,223.447052 172.340286,220.130676 
	C169.502914,222.524124 166.744919,224.850601 163.252731,227.056183 
	C154.785095,224.212433 146.398224,221.082855 137.812515,218.656921 
	C134.055252,217.595322 130.941467,219.830841 130.018661,223.789734 
	C129.077301,227.828217 130.606964,230.350967 135.059586,231.237015 
	C140.077545,232.235550 144.972672,233.851456 149.542480,235.696640 
	C147.986023,236.767105 146.429565,237.837585 144.174316,238.990341 
M298.372498,268.024994 
	C298.588074,262.775452 298.956299,257.526245 298.969238,252.276199 
	C298.978973,248.323578 301.266083,247.004639 304.582001,246.817169 
	C308.257477,246.609390 308.890289,249.113205 308.869751,252.095734 
	C308.833527,257.354889 308.859619,262.614471 308.859619,267.902222 
	C311.515869,267.902222 313.601746,267.902222 316.087433,267.902222 
	C316.087433,262.592102 316.195404,257.474182 316.052490,252.363312 
	C315.942963,248.447235 318.173981,247.037247 321.536530,246.812302 
	C325.239197,246.564590 325.892365,249.078400 325.892456,252.033844 
	C325.892609,257.302185 325.892487,262.570526 325.892487,267.896332 
	C328.491150,267.896332 330.568817,267.896332 333.035797,267.896332 
	C333.035797,261.412872 333.070435,255.131744 333.026703,248.851181 
	C332.976562,241.651291 328.164734,238.313782 321.364807,240.914490 
	C319.264191,241.717926 317.416992,243.183975 315.448364,244.349838 
	C310.973328,238.924210 307.460693,238.691833 299.672058,241.993652 
	C297.292908,241.510773 294.913757,241.027878 292.230103,240.483200 
	C292.230103,250.106232 292.230103,258.993774 292.230103,268.098938 
	C294.135498,268.098938 295.775238,268.098938 298.372498,268.024994 
M232.301453,268.452484 
	C235.405609,268.712982 238.542191,269.389191 241.607346,269.149902 
	C248.610931,268.603302 253.596512,262.992584 253.919037,255.873016 
	C254.260864,248.327408 249.876984,241.866714 242.840439,241.042953 
	C236.971222,240.355850 230.957626,240.902069 225.214386,240.902069 
	C225.214386,253.849838 225.214386,266.082794 225.214386,278.414978 
	C227.569504,278.414978 229.639847,278.414978 232.115829,278.414978 
	C232.115829,275.204926 232.115829,272.241058 232.301453,268.452484 
M202.931015,268.882965 
	C204.421356,268.870758 205.941666,269.046692 207.397064,268.814972 
	C215.315643,267.554291 220.348663,261.128021 219.622818,253.343597 
	C218.859543,245.157928 212.757111,239.831238 204.481873,240.127335 
	C197.128357,240.390457 191.750839,245.137115 190.898849,252.116837 
	C189.838959,260.799988 193.417465,266.096161 202.931015,268.882965 
M357.300262,257.824371 
	C355.149323,260.798981 351.814636,263.365479 353.766998,267.854126 
	C361.122955,267.854126 368.377808,267.854126 375.738770,267.854126 
	C375.738770,265.839600 375.738770,264.088776 375.738770,261.762024 
	C371.721130,261.762024 367.865204,261.762024 363.944489,261.762024 
	C367.086487,254.165024 375.997498,250.459030 375.710968,241.205383 
	C368.010193,241.205383 360.780182,241.205383 353.578857,241.205383 
	C353.578857,243.276428 353.578857,245.015274 353.578857,247.269928 
	C357.560486,247.269928 361.254517,247.269928 365.625519,247.269928 
	C362.655670,251.048996 360.210785,254.160080 357.300262,257.824371 
M260.053619,233.790222 
	C259.851593,236.061249 259.649597,238.332291 259.455017,240.519775 
	C257.784180,240.832718 256.412079,241.089691 255.195679,241.317505 
	C255.195679,243.341721 255.195679,244.976166 255.195679,246.823273 
	C256.717041,246.998505 258.103394,247.158173 259.910339,247.366302 
	C259.910339,254.435791 259.910339,261.178925 259.910339,267.844299 
	C262.470825,267.844299 264.553436,267.844299 267.020081,267.844299 
	C267.020081,260.817841 267.020081,254.053299 267.020081,247.224304 
	C269.012085,247.080353 270.613251,246.964645 272.405518,246.835129 
	C272.405518,244.837952 272.405518,243.084991 272.405518,241.235474 
	C270.483765,240.971161 268.759583,240.734009 267.088623,240.504181 
	C266.959351,237.912491 266.846558,235.651077 266.727844,233.270782 
	C264.422852,233.270782 262.604950,233.270782 260.053619,233.790222 
M279.632141,240.842422 
	C278.846100,241.603043 277.392365,242.350220 277.376770,243.126328 
	C277.211121,251.362747 277.274048,259.603760 277.274048,267.827881 
	C280.031921,267.827881 282.259308,267.827881 284.586823,267.827881 
	C284.586823,258.784149 284.586823,250.068115 284.586823,241.097885 
	C283.115448,241.003571 281.837036,240.921616 279.632141,240.842422 
M345.250824,268.113525 
	C345.968750,267.302124 347.294556,266.502441 347.310425,265.677582 
	C347.466461,257.569733 347.404633,249.457733 347.404633,241.167175 
	C344.857941,241.167175 342.650421,241.167175 340.319397,241.167175 
	C340.319397,250.186859 340.319397,258.917053 340.319397,267.920807 
	C341.777588,267.991669 343.057861,268.053925 345.250824,268.113525 
M347.587402,234.787506 
	C348.871094,231.832825 348.071808,229.386215 345.062317,228.526794 
	C343.747009,228.151184 341.172577,229.028839 340.570312,230.114334 
	C339.824280,231.459061 339.877533,234.069504 340.751465,235.315155 
	C342.437500,237.718369 344.931519,237.467560 347.587402,234.787506 
M278.473175,229.090286 
	C278.326477,231.261978 277.762207,233.543732 278.287933,235.538162 
	C278.445282,236.135117 282.198822,236.687317 283.303833,235.883713 
	C284.467682,235.037292 285.381104,231.724594 284.712982,230.952209 
	C283.558563,229.617630 281.097290,229.413452 278.473175,229.090286 
z"/>
<path fill="#050505" opacity="1.000000" stroke="none" 
	d="
M297.893738,268.061951 
	C295.775238,268.098938 294.135498,268.098938 292.230103,268.098938 
	C292.230103,258.993774 292.230103,250.106232 292.230103,240.483200 
	C294.913757,241.027878 297.292908,241.510773 299.672058,241.993652 
	C307.460693,238.691833 310.973328,238.924210 315.448364,244.349838 
	C317.416992,243.183975 319.264191,241.717926 321.364807,240.914490 
	C328.164734,238.313782 332.976562,241.651291 333.026703,248.851181 
	C333.070435,255.131744 333.035797,261.412872 333.035797,267.896332 
	C330.568817,267.896332 328.491150,267.896332 325.892487,267.896332 
	C325.892487,262.570526 325.892609,257.302185 325.892456,252.033844 
	C325.892365,249.078400 325.239197,246.564590 321.536530,246.812302 
	C318.173981,247.037247 315.942963,248.447235 316.052490,252.363312 
	C316.195404,257.474182 316.087433,262.592102 316.087433,267.902222 
	C313.601746,267.902222 311.515869,267.902222 308.859619,267.902222 
	C308.859619,262.614471 308.833527,257.354889 308.869751,252.095734 
	C308.890289,249.113205 308.257477,246.609390 304.582001,246.817169 
	C301.266083,247.004639 298.978973,248.323578 298.969238,252.276199 
	C298.956299,257.526245 298.588074,262.775452 297.893738,268.061951 
z"/>
<path fill="#060606" opacity="1.000000" stroke="none" 
	d="
M232.208649,268.864807 
	C232.115829,272.241058 232.115829,275.204926 232.115829,278.414978 
	C229.639847,278.414978 227.569504,278.414978 225.214386,278.414978 
	C225.214386,266.082794 225.214386,253.849838 225.214386,240.902069 
	C230.957626,240.902069 236.971222,240.355850 242.840439,241.042953 
	C249.876984,241.866714 254.260864,248.327408 253.919037,255.873016 
	C253.596512,262.992584 248.610931,268.603302 241.607346,269.149902 
	C238.542191,269.389191 235.405609,268.712982 232.208649,268.864807 
M233.497345,250.132080 
	C233.028351,251.531448 232.223770,252.914398 232.154312,254.333328 
	C231.958450,258.334747 233.520996,261.634674 237.543961,262.813904 
	C240.952225,263.812958 243.860123,262.355011 245.286850,259.078461 
	C246.900284,255.373138 246.939758,251.498123 243.625900,248.656006 
	C240.347198,245.844040 236.938690,246.347488 233.497345,250.132080 
z"/>
<path fill="#593F99" opacity="1.000000" stroke="none" 
	d="
M161.066055,257.979645 
	C165.824036,259.310364 170.548721,260.780273 175.350357,261.928406 
	C179.291061,262.870667 181.678085,264.755249 180.950699,269.139465 
	C180.307312,273.017242 176.552475,275.828674 172.388748,274.711639 
	C165.385605,272.832855 158.546280,270.338837 151.653214,268.057831 
	C150.095383,267.542328 148.599762,266.838837 146.499252,265.968048 
	C144.337708,264.979309 142.752426,264.244385 141.167145,263.509460 
	C139.084915,261.950867 137.012344,260.379150 134.918701,258.836060 
	C128.255646,253.925171 128.112228,250.965927 134.885773,245.227127 
	C137.748825,250.402603 141.706314,252.809509 147.284195,252.633453 
	C147.277618,252.661987 147.270065,252.717606 147.280838,253.031113 
	C147.836227,253.582184 148.380859,253.819748 149.238434,254.196808 
	C150.587143,254.721283 151.622925,255.106232 152.951233,255.700134 
	C155.851196,256.599274 158.458618,257.289459 161.066055,257.979645 
z"/>
<path fill="#ED2154" opacity="1.000000" stroke="none" 
	d="
M169.620392,230.166397 
	C172.047470,231.889999 174.555695,233.511200 176.885376,235.357697 
	C182.342377,239.682938 182.377457,242.703354 177.152878,247.461624 
	C176.420731,248.128448 175.589340,248.686295 174.447250,248.981873 
	C173.761444,243.151718 170.747116,240.869370 162.871368,240.119965 
	C162.907730,240.093109 162.964706,240.162964 162.847076,239.898972 
	C162.396912,239.457901 162.064362,239.280823 161.426727,239.031799 
	C160.182144,238.552414 159.242645,238.144989 158.035278,237.482758 
	C155.152023,236.551575 152.536636,235.875198 149.921234,235.198822 
	C144.972672,233.851456 140.077545,232.235550 135.059586,231.237015 
	C130.606964,230.350967 129.077301,227.828217 130.018661,223.789734 
	C130.941467,219.830841 134.055252,217.595322 137.812515,218.656921 
	C146.398224,221.082855 154.785095,224.212433 163.817749,227.372574 
	C166.128647,228.514771 167.874512,229.340591 169.620392,230.166397 
z"/>
<path fill="#0A0A0A" opacity="1.000000" stroke="none" 
	d="
M202.526093,268.804382 
	C193.417465,266.096161 189.838959,260.799988 190.898849,252.116837 
	C191.750839,245.137115 197.128357,240.390457 204.481873,240.127335 
	C212.757111,239.831238 218.859543,245.157928 219.622818,253.343597 
	C220.348663,261.128021 215.315643,267.554291 207.397064,268.814972 
	C205.941666,269.046692 204.421356,268.870758 202.526093,268.804382 
M198.711395,257.593353 
	C200.253479,262.297882 203.793640,263.020630 207.889816,261.802216 
	C211.270493,260.796600 213.047760,255.594727 211.634232,251.529510 
	C210.269119,247.603546 207.338516,246.184631 203.378281,246.926102 
	C199.540848,247.644592 197.846725,251.121628 198.711395,257.593353 
z"/>
<path fill="#080808" opacity="1.000000" stroke="none" 
	d="
M357.533081,257.547760 
	C360.210785,254.160080 362.655670,251.048996 365.625519,247.269928 
	C361.254517,247.269928 357.560486,247.269928 353.578857,247.269928 
	C353.578857,245.015274 353.578857,243.276428 353.578857,241.205383 
	C360.780182,241.205383 368.010193,241.205383 375.710968,241.205383 
	C375.997498,250.459030 367.086487,254.165024 363.944489,261.762024 
	C367.865204,261.762024 371.721130,261.762024 375.738770,261.762024 
	C375.738770,264.088776 375.738770,265.839600 375.738770,267.854126 
	C368.377808,267.854126 361.122955,267.854126 353.766998,267.854126 
	C351.814636,263.365479 355.149323,260.798981 357.533081,257.547760 
z"/>
<path fill="#080808" opacity="1.000000" stroke="none" 
	d="
M260.420319,233.530502 
	C262.604950,233.270782 264.422852,233.270782 266.727844,233.270782 
	C266.846558,235.651077 266.959351,237.912491 267.088623,240.504181 
	C268.759583,240.734009 270.483765,240.971161 272.405518,241.235474 
	C272.405518,243.084991 272.405518,244.837952 272.405518,246.835129 
	C270.613251,246.964645 269.012085,247.080353 267.020081,247.224304 
	C267.020081,254.053299 267.020081,260.817841 267.020081,267.844299 
	C264.553436,267.844299 262.470825,267.844299 259.910339,267.844299 
	C259.910339,261.178925 259.910339,254.435791 259.910339,247.366302 
	C258.103394,247.158173 256.717041,246.998505 255.195679,246.823273 
	C255.195679,244.976166 255.195679,243.341721 255.195679,241.317505 
	C256.412079,241.089691 257.784180,240.832718 259.455017,240.519775 
	C259.649597,238.332291 259.851593,236.061249 260.420319,233.530502 
z"/>
<path fill="#191919" opacity="1.000000" stroke="none" 
	d="
M280.095367,240.841034 
	C281.837036,240.921616 283.115448,241.003571 284.586823,241.097885 
	C284.586823,250.068115 284.586823,258.784149 284.586823,267.827881 
	C282.259308,267.827881 280.031921,267.827881 277.274048,267.827881 
	C277.274048,259.603760 277.211121,251.362747 277.376770,243.126328 
	C277.392365,242.350220 278.846100,241.603043 280.095367,240.841034 
z"/>
<path fill="#090909" opacity="1.000000" stroke="none" 
	d="
M344.794495,268.114838 
	C343.057861,268.053925 341.777588,267.991669 340.319397,267.920807 
	C340.319397,258.917053 340.319397,250.186859 340.319397,241.167175 
	C342.650421,241.167175 344.857941,241.167175 347.404633,241.167175 
	C347.404633,249.457733 347.466461,257.569733 347.310425,265.677582 
	C347.294556,266.502441 345.968750,267.302124 344.794495,268.114838 
z"/>
<path fill="#B82342" opacity="1.000000" stroke="none" 
	d="
M162.834991,240.146805 
	C170.747116,240.869370 173.761444,243.151718 174.114746,249.116180 
	C169.898209,252.176346 165.657547,254.789474 161.241455,257.691132 
	C158.458618,257.289459 155.851196,256.599274 153.228088,255.426712 
	C155.807419,252.892929 158.435379,250.881546 160.988754,248.779541 
	C163.859085,246.416550 165.136551,243.647430 162.834991,240.146805 
z"/>
<path fill="#7C7BBA" opacity="1.000000" stroke="none" 
	d="
M147.290771,252.604919 
	C141.706314,252.809509 137.748825,250.402603 135.196609,245.073639 
	C137.988785,242.923279 141.081558,240.956802 144.820404,239.212616 
	C145.997955,242.013611 146.529434,244.592316 146.902832,247.469650 
	C146.926773,249.380493 147.108765,250.992706 147.290771,252.604919 
z"/>
<path fill="#768FC7" opacity="1.000000" stroke="none" 
	d="
M147.060913,247.171021 
	C146.529434,244.592316 145.997955,242.013611 145.169785,239.171478 
	C146.429565,237.837585 147.986023,236.767105 149.731857,235.447723 
	C152.536636,235.875198 155.152023,236.551575 157.745605,237.702148 
	C154.169495,241.174576 150.615204,244.172806 147.060913,247.171021 
z"/>
<path fill="#0F0F0F" opacity="1.000000" stroke="none" 
	d="
M347.331787,235.084473 
	C344.931519,237.467560 342.437500,237.718369 340.751465,235.315155 
	C339.877533,234.069504 339.824280,231.459061 340.570312,230.114334 
	C341.172577,229.028839 343.747009,228.151184 345.062317,228.526794 
	C348.071808,229.386215 348.871094,231.832825 347.331787,235.084473 
z"/>
<path fill="#0D0D0D" opacity="1.000000" stroke="none" 
	d="
M278.828735,228.912659 
	C281.097290,229.413452 283.558563,229.617630 284.712982,230.952209 
	C285.381104,231.724594 284.467682,235.037292 283.303833,235.883713 
	C282.198822,236.687317 278.445282,236.135117 278.287933,235.538162 
	C277.762207,233.543732 278.326477,231.261978 278.828735,228.912659 
z"/>
<path fill="#BB2F4D" opacity="1.000000" stroke="none" 
	d="
M140.843109,263.709442 
	C142.752426,264.244385 144.337708,264.979309 146.101654,265.976746 
	C143.763794,268.541412 141.247253,270.843567 138.564499,273.297760 
	C134.911392,270.626068 135.189178,267.917358 140.843109,263.709442 
z"/>
<path fill="#5EBBE5" opacity="1.000000" stroke="none" 
	d="
M169.876556,229.888138 
	C167.874512,229.340591 166.128647,228.514771 164.184845,227.433029 
	C166.744919,224.850601 169.502914,222.524124 172.340286,220.130676 
	C175.573654,223.447052 175.230591,225.697174 169.876556,229.888138 
z"/>
<path fill="#F7F7F7" opacity="1.000000" stroke="none" 
	d="
M233.731903,249.814850 
	C236.938690,246.347488 240.347198,245.844040 243.625900,248.656006 
	C246.939758,251.498123 246.900284,255.373138 245.286850,259.078461 
	C243.860123,262.355011 240.952225,263.812958 237.543961,262.813904 
	C233.520996,261.634674 231.958450,258.334747 232.154312,254.333328 
	C232.223770,252.914398 233.028351,251.531448 233.731903,249.814850 
z"/>
<path fill="#FDFCFC" opacity="1.000000" stroke="none" 
	d="
M146.902832,247.469650 
	C150.615204,244.172806 154.169495,241.174576 158.013458,237.956955 
	C159.242645,238.144989 160.182144,238.552414 161.544708,239.296082 
	C162.300079,239.809204 162.632385,239.986084 162.964706,240.162964 
	C162.964706,240.162964 162.907730,240.093109 162.871368,240.119965 
	C165.136551,243.647430 163.859085,246.416550 160.988754,248.779541 
	C158.435379,250.881546 155.807419,252.892929 152.935547,255.217743 
	C151.622925,255.106232 150.587143,254.721283 149.111038,253.945557 
	C148.203827,253.275711 147.736954,252.996658 147.270065,252.717606 
	C147.270065,252.717606 147.277618,252.661987 147.284180,252.633453 
	C147.108765,250.992706 146.926773,249.380493 146.902832,247.469650 
z"/>
<path fill="#7C7BBA" opacity="1.000000" stroke="none" 
	d="
M147.280838,253.031113 
	C147.736954,252.996658 148.203827,253.275711 148.798096,253.806030 
	C148.380859,253.819748 147.836227,253.582184 147.280838,253.031113 
z"/>
<path fill="#B82342" opacity="1.000000" stroke="none" 
	d="
M162.847076,239.898972 
	C162.632385,239.986084 162.300079,239.809204 161.849792,239.368042 
	C162.064362,239.280823 162.396912,239.457901 162.847076,239.898972 
z"/>
<path fill="#F8F8F8" opacity="1.000000" stroke="none" 
	d="
M198.540436,257.228455 
	C197.846725,251.121628 199.540848,247.644592 203.378281,246.926102 
	C207.338516,246.184631 210.269119,247.603546 211.634232,251.529510 
	C213.047760,255.594727 211.270493,260.796600 207.889816,261.802216 
	C203.793640,263.020630 200.253479,262.297882 198.540436,257.228455 
z"/>
</svg>